<svg width="182" height="181" viewBox="0 0 182 181" fill="none" xmlns="http://www.w3.org/2000/svg">
<path d="M83.3168 15.8064V4.30473C82.7926 4.79798 81.7066 5.04461 80.059 5.04461V3.0716C81.392 3.04171 82.3207 2.81751 82.845 2.39899C83.3842 1.98047 83.7062 1.28544 83.8111 0.313887H85.7433V15.8064H83.3168Z" fill="white"/>
<path d="M99.0853 15.8064H88.0535C88.0535 14.4164 88.4504 13.1832 89.2443 12.1071C90.0382 11.0309 91.2215 10.007 92.7942 9.03545C94.3221 8.10874 95.2657 7.48844 95.6252 7.17455C96.3741 6.51688 96.7486 5.70227 96.7486 4.73072C96.7486 2.96698 95.8723 2.0851 94.1198 2.0851C91.9929 2.0851 90.9294 3.31823 90.9294 5.78448H88.4579C88.4579 4.05063 88.9372 2.65309 89.8959 1.59185C90.8695 0.530618 92.2999 0 94.1872 0C95.6402 0 96.846 0.418515 97.8046 1.25555C98.7782 2.07763 99.265 3.20613 99.265 4.64104C99.265 5.22397 99.1676 5.77701 98.9729 6.30015C98.7782 6.8233 98.546 7.26423 98.2764 7.62296C98.0218 7.98169 97.6548 8.36284 97.1755 8.76641C96.6962 9.16997 96.2917 9.48386 95.9622 9.70807C95.6327 9.91732 95.1758 10.2013 94.5917 10.56C93.9326 10.9487 93.4308 11.2626 93.0863 11.5017C92.7418 11.7259 92.3673 12.0398 91.9629 12.4434C91.5735 12.832 91.3114 13.243 91.1765 13.6765V13.7213H99.0853V15.8064Z" fill="white"/>
<path d="M90.7466 181C86.7173 181 84.7027 178.324 84.7027 172.973C84.7027 170.418 85.2344 168.43 86.2979 167.01C87.3614 165.59 88.8518 164.88 90.7691 164.88C92.177 164.88 93.3454 165.291 94.274 166.113C95.2027 166.92 95.7345 167.921 95.8693 169.117H93.3753C93.1357 167.637 92.2669 166.898 90.7691 166.898C88.3425 166.898 87.1292 168.684 87.1292 172.256V172.48L87.1966 172.503C88.0355 171.142 89.3685 170.462 91.1959 170.462C92.7088 170.462 93.937 170.941 94.8807 171.897C95.8243 172.854 96.2962 174.094 96.2962 175.619C96.2962 177.159 95.7869 178.444 94.7683 179.475C93.7648 180.492 92.4242 181 90.7466 181ZM90.6792 178.982C91.6827 178.982 92.4541 178.691 92.9934 178.108C93.5476 177.525 93.8247 176.74 93.8247 175.754C93.8247 174.737 93.5551 173.945 93.0158 173.377C92.4766 172.794 91.7501 172.503 90.8364 172.503C89.7879 172.503 88.9491 172.809 88.32 173.422C87.7059 174.02 87.3989 174.812 87.3989 175.798C87.3989 176.755 87.6834 177.525 88.2526 178.108C88.8368 178.691 89.6457 178.982 90.6792 178.982Z" fill="white"/>
<path d="M176.361 98.5602C174.368 98.5602 172.826 98.0744 171.732 97.1028C170.654 96.1163 170.114 94.7337 170.114 92.955H172.586C172.586 94.091 172.863 94.9654 173.417 95.5782C173.971 96.1761 174.9 96.4751 176.203 96.4751C177.387 96.4751 178.225 96.2508 178.72 95.8024C179.229 95.354 179.484 94.6964 179.484 93.8294C179.484 92.0657 178.45 91.1838 176.383 91.1838H174.923V89.1884H176.293C177.117 89.1884 177.761 88.9941 178.225 88.6055C178.705 88.2168 178.944 87.619 178.944 86.8118C178.944 86.1542 178.727 85.6086 178.293 85.1751C177.858 84.7417 177.192 84.5249 176.293 84.5249C174.106 84.5249 173.013 85.489 173.013 87.4172H170.541C170.541 85.9225 171.036 84.7193 172.024 83.8075C173.028 82.8957 174.458 82.4398 176.316 82.4398C177.769 82.4398 178.989 82.821 179.978 83.5833C180.966 84.3456 181.461 85.3844 181.461 86.6997C181.461 88.2542 180.682 89.3603 179.124 90.018V90.0628C181.041 90.6756 182 91.9461 182 93.8743C182 95.354 181.491 96.5049 180.472 97.327C179.469 98.1491 178.098 98.5602 176.361 98.5602Z" fill="white"/>
<path d="M5.50464 98.5602C4.09665 98.5602 2.92832 98.1566 1.99965 97.3494C1.08595 96.5274 0.554209 95.5184 0.404423 94.3227H2.92083C3.13053 95.8024 3.99929 96.5423 5.52711 96.5423C6.21613 96.5423 6.80778 96.3928 7.30208 96.0939C7.79637 95.795 8.17084 95.3839 8.42548 94.8608C8.69509 94.3227 8.88232 93.7547 8.98717 93.1568C9.107 92.5589 9.16692 91.9013 9.16692 91.1838V90.9596L9.09951 90.9372C8.26071 92.2974 6.92761 92.9775 5.10022 92.9775C3.58738 92.9775 2.35913 92.4992 1.41548 91.5425C0.471827 90.5859 0 89.3453 0 87.8208C0 86.2812 0.501784 85.0032 1.50535 83.9868C2.50892 82.9555 3.857 82.4398 5.54958 82.4398C9.57883 82.4398 11.5935 85.1153 11.5935 90.4664C11.5935 93.0223 11.0617 95.0103 9.99823 96.4302C8.93475 97.8502 7.43689 98.5602 5.50464 98.5602ZM5.45971 90.9372C6.50821 90.9372 7.33953 90.6383 7.95365 90.0404C8.58275 89.4275 8.8973 88.6279 8.8973 87.6414C8.8973 86.6848 8.60522 85.915 8.02105 85.3321C7.45187 84.7491 6.64302 84.4577 5.59452 84.4577C4.60593 84.4577 3.83453 84.7491 3.28032 85.3321C2.74109 85.915 2.47147 86.6997 2.47147 87.6862C2.47147 88.7026 2.74109 89.5023 3.28032 90.0852C3.81955 90.6532 4.54601 90.9372 5.45971 90.9372Z" fill="white"/>
<path fill-rule="evenodd" clip-rule="evenodd" d="M130.963 15.8878L136.821 6.32228L139.696 8.07595L133.838 17.6414L130.963 15.8878ZM47.5106 17.6453L41.5517 8.14216L44.4087 6.35826L50.3676 15.8615L47.5106 17.6453ZM163.338 46.6035L172.769 40.5135L174.6 43.337L165.168 49.427L163.338 46.6035ZM16.2416 49.4817L6.74597 43.4915L8.54683 40.6488L18.0425 46.639L16.2416 49.4817ZM164.959 131.316L174.454 137.307L172.653 140.149L163.158 134.159L164.959 131.316ZM17.8628 134.195L8.43106 140.285L6.6002 137.461L16.0319 131.371L17.8628 134.195ZM133.69 163.153L139.649 172.656L136.792 174.44L130.833 164.937L133.69 163.153ZM50.2377 164.91L44.3798 174.476L41.504 172.722L47.362 163.157L50.2377 164.91Z" fill="white"/>
</svg>
