<svg width="192" height="191" viewBox="0 0 192 191" fill="none" xmlns="http://www.w3.org/2000/svg">
<path d="M88.3168 15.8064V4.30473C87.7926 4.79798 86.7066 5.04461 85.0589 5.04461V3.07161C86.392 3.04171 87.3207 2.81751 87.845 2.39899C88.3842 1.98047 88.7062 1.28544 88.8111 0.313887H90.7433V15.8064H88.3168Z" fill="white"/>
<path d="M104.085 15.8064H93.0535C93.0535 14.4164 93.4504 13.1832 94.2443 12.1071C95.0382 11.0309 96.2215 10.007 97.7942 9.03545C99.3221 8.10874 100.266 7.48844 100.625 7.17455C101.374 6.51688 101.749 5.70227 101.749 4.73072C101.749 2.96698 100.872 2.0851 99.1198 2.0851C96.9929 2.0851 95.9294 3.31823 95.9294 5.78448H93.4579C93.4579 4.05063 93.9372 2.65309 94.8959 1.59185C95.8695 0.530618 97.2999 0 99.1872 0C100.64 0 101.846 0.418515 102.805 1.25555C103.778 2.07763 104.265 3.20613 104.265 4.64104C104.265 5.22397 104.168 5.77701 103.973 6.30015C103.778 6.8233 103.546 7.26423 103.276 7.62296C103.022 7.98169 102.655 8.36284 102.175 8.7664C101.696 9.16997 101.292 9.48386 100.962 9.70806C100.633 9.91732 100.176 10.2013 99.5917 10.56C98.9326 10.9487 98.4308 11.2626 98.0863 11.5017C97.7418 11.7259 97.3673 12.0398 96.9629 12.4434C96.5735 12.832 96.3114 13.243 96.1765 13.6765V13.7213H104.085V15.8064Z" fill="white"/>
<path d="M95.7466 191C91.7173 191 89.7027 188.324 89.7027 182.973C89.7027 180.418 90.2344 178.43 91.2979 177.01C92.3614 175.59 93.8518 174.88 95.7691 174.88C97.177 174.88 98.3454 175.291 99.274 176.113C100.203 176.92 100.734 177.921 100.869 179.117H98.3753C98.1357 177.637 97.2669 176.898 95.7691 176.898C93.3425 176.898 92.1292 178.684 92.1292 182.256V182.48L92.1966 182.503C93.0355 181.142 94.3685 180.462 96.1959 180.462C97.7088 180.462 98.937 180.941 99.8807 181.897C100.824 182.854 101.296 184.094 101.296 185.619C101.296 187.159 100.787 188.444 99.7683 189.475C98.7648 190.492 97.4242 191 95.7466 191ZM95.6792 188.982C96.6827 188.982 97.4541 188.691 97.9934 188.108C98.5476 187.525 98.8247 186.74 98.8247 185.754C98.8247 184.737 98.5551 183.945 98.0158 183.377C97.4766 182.794 96.7501 182.503 95.8365 182.503C94.7879 182.503 93.9491 182.809 93.32 183.422C92.7059 184.02 92.3989 184.812 92.3989 185.798C92.3989 186.755 92.6834 187.525 93.2526 188.108C93.8368 188.691 94.6457 188.982 95.6792 188.982Z" fill="white"/>
<path d="M186.361 103.56C184.368 103.56 182.826 103.074 181.732 102.103C180.654 101.116 180.114 99.7337 180.114 97.955H182.586C182.586 99.091 182.863 99.9654 183.417 100.578C183.971 101.176 184.9 101.475 186.203 101.475C187.387 101.475 188.225 101.251 188.72 100.802C189.229 100.354 189.484 99.6964 189.484 98.8294C189.484 97.0657 188.45 96.1838 186.383 96.1838H184.923V94.1884H186.293C187.117 94.1884 187.761 93.9941 188.225 93.6055C188.705 93.2168 188.944 92.619 188.944 91.8118C188.944 91.1542 188.727 90.6086 188.293 90.1751C187.858 89.7417 187.192 89.5249 186.293 89.5249C184.106 89.5249 183.013 90.489 183.013 92.4172H180.541C180.541 90.9225 181.036 89.7193 182.024 88.8075C183.028 87.8957 184.458 87.4398 186.316 87.4398C187.769 87.4398 188.989 87.821 189.978 88.5833C190.966 89.3456 191.461 90.3844 191.461 91.6997C191.461 93.2542 190.682 94.3603 189.124 95.018V95.0628C191.041 95.6756 192 96.9461 192 98.8743C192 100.354 191.491 101.505 190.472 102.327C189.469 103.149 188.098 103.56 186.361 103.56Z" fill="white"/>
<path d="M5.50464 103.56C4.09665 103.56 2.92832 103.157 1.99965 102.349C1.08595 101.527 0.554209 100.518 0.404423 99.3227H2.92083C3.13053 100.802 3.99929 101.542 5.52711 101.542C6.21613 101.542 6.80778 101.393 7.30208 101.094C7.79637 100.795 8.17084 100.384 8.42548 99.8608C8.69509 99.3227 8.88232 98.7547 8.98718 98.1568C9.107 97.5589 9.16692 96.9013 9.16692 96.1838V95.9596L9.09951 95.9372C8.26071 97.2974 6.92761 97.9775 5.10022 97.9775C3.58738 97.9775 2.35913 97.4992 1.41548 96.5425C0.471827 95.5859 0 94.3453 0 92.8208C0 91.2812 0.501784 90.0032 1.50535 88.9868C2.50892 87.9555 3.857 87.4398 5.54958 87.4398C9.57883 87.4398 11.5935 90.1153 11.5935 95.4664C11.5935 98.0223 11.0617 100.01 9.99823 101.43C8.93475 102.85 7.43689 103.56 5.50464 103.56ZM5.45971 95.9372C6.50821 95.9372 7.33953 95.6383 7.95365 95.0404C8.58275 94.4275 8.8973 93.6279 8.8973 92.6414C8.8973 91.6848 8.60522 90.915 8.02105 90.3321C7.45187 89.7491 6.64302 89.4577 5.59452 89.4577C4.60593 89.4577 3.83453 89.7491 3.28032 90.3321C2.74109 90.915 2.47147 91.6997 2.47147 92.6862C2.47147 93.7026 2.74109 94.5023 3.28032 95.0852C3.81955 95.6532 4.54601 95.9372 5.45971 95.9372Z" fill="white"/>
<path fill-rule="evenodd" clip-rule="evenodd" d="M135.963 20.8878L141.821 11.3223L144.696 13.076L138.838 22.6414L135.963 20.8878ZM52.5106 22.6453L46.5517 13.1422L49.4087 11.3583L55.3676 20.8615L52.5106 22.6453ZM168.338 51.6035L177.769 45.5135L179.6 48.337L170.168 54.427L168.338 51.6035ZM21.2416 54.4817L11.746 48.4915L13.5468 45.6488L23.0425 51.639L21.2416 54.4817ZM169.959 136.316L179.454 142.307L177.653 145.149L168.158 139.159L169.959 136.316ZM22.8628 139.195L13.4311 145.285L11.6002 142.461L21.0319 136.371L22.8628 139.195ZM138.69 168.153L144.649 177.656L141.792 179.44L135.833 169.937L138.69 168.153ZM55.2377 169.91L49.3798 179.476L46.504 177.722L52.362 168.157L55.2377 169.91Z" fill="white"/>
</svg>
