<svg width="188" height="187" viewBox="0 0 188 187" fill="none" xmlns="http://www.w3.org/2000/svg">
<path d="M86.3168 15.8064V4.30473C85.7926 4.79798 84.7066 5.04461 83.059 5.04461V3.0716C84.392 3.04171 85.3207 2.81751 85.845 2.39899C86.3842 1.98047 86.7062 1.28544 86.8111 0.313887H88.7433V15.8064H86.3168Z" fill="white"/>
<path d="M102.085 15.8064H91.0535C91.0535 14.4164 91.4504 13.1832 92.2443 12.1071C93.0382 11.0309 94.2215 10.007 95.7942 9.03545C97.3221 8.10874 98.2657 7.48844 98.6252 7.17455C99.3741 6.51688 99.7486 5.70227 99.7486 4.73072C99.7486 2.96698 98.8723 2.0851 97.1198 2.0851C94.9929 2.0851 93.9294 3.31823 93.9294 5.78448H91.4579C91.4579 4.05063 91.9372 2.65309 92.8959 1.59185C93.8695 0.530618 95.2999 0 97.1872 0C98.6402 0 99.846 0.418515 100.805 1.25555C101.778 2.07763 102.265 3.20613 102.265 4.64104C102.265 5.22397 102.168 5.77701 101.973 6.30015C101.778 6.8233 101.546 7.26423 101.276 7.62296C101.022 7.98169 100.655 8.36284 100.175 8.76641C99.6962 9.16997 99.2917 9.48386 98.9622 9.70807C98.6327 9.91732 98.1758 10.2013 97.5917 10.56C96.9326 10.9487 96.4308 11.2626 96.0863 11.5017C95.7418 11.7259 95.3673 12.0398 94.9629 12.4434C94.5735 12.832 94.3114 13.243 94.1765 13.6765V13.7213H102.085V15.8064Z" fill="white"/>
<path d="M93.7466 187C89.7173 187 87.7027 184.324 87.7027 178.973C87.7027 176.418 88.2344 174.43 89.2979 173.01C90.3614 171.59 91.8518 170.88 93.7691 170.88C95.177 170.88 96.3454 171.291 97.274 172.113C98.2027 172.92 98.7345 173.921 98.8693 175.117H96.3753C96.1357 173.637 95.2669 172.898 93.7691 172.898C91.3425 172.898 90.1292 174.684 90.1292 178.256V178.48L90.1966 178.503C91.0355 177.142 92.3685 176.462 94.1959 176.462C95.7088 176.462 96.937 176.941 97.8807 177.897C98.8243 178.854 99.2962 180.094 99.2962 181.619C99.2962 183.159 98.7869 184.444 97.7683 185.475C96.7648 186.492 95.4242 187 93.7466 187ZM93.6792 184.982C94.6827 184.982 95.4541 184.691 95.9934 184.108C96.5476 183.525 96.8247 182.74 96.8247 181.754C96.8247 180.737 96.5551 179.945 96.0158 179.377C95.4766 178.794 94.7501 178.503 93.8364 178.503C92.7879 178.503 91.9491 178.809 91.32 179.422C90.7059 180.02 90.3989 180.812 90.3989 181.798C90.3989 182.755 90.6834 183.525 91.2526 184.108C91.8368 184.691 92.6457 184.982 93.6792 184.982Z" fill="white"/>
<path d="M182.361 101.56C180.368 101.56 178.826 101.074 177.732 100.103C176.654 99.1163 176.114 97.7337 176.114 95.955H178.586C178.586 97.091 178.863 97.9654 179.417 98.5782C179.971 99.1761 180.9 99.4751 182.203 99.4751C183.387 99.4751 184.225 99.2508 184.72 98.8024C185.229 98.354 185.484 97.6964 185.484 96.8294C185.484 95.0657 184.45 94.1838 182.383 94.1838H180.923V92.1884H182.293C183.117 92.1884 183.761 91.9941 184.225 91.6055C184.705 91.2168 184.944 90.619 184.944 89.8118C184.944 89.1542 184.727 88.6086 184.293 88.1751C183.858 87.7417 183.192 87.5249 182.293 87.5249C180.106 87.5249 179.013 88.489 179.013 90.4172H176.541C176.541 88.9225 177.036 87.7193 178.024 86.8075C179.028 85.8957 180.458 85.4398 182.316 85.4398C183.769 85.4398 184.989 85.821 185.978 86.5833C186.966 87.3456 187.461 88.3844 187.461 89.6997C187.461 91.2542 186.682 92.3603 185.124 93.018V93.0628C187.041 93.6756 188 94.9461 188 96.8743C188 98.354 187.491 99.5049 186.472 100.327C185.469 101.149 184.098 101.56 182.361 101.56Z" fill="white"/>
<path d="M5.50464 101.56C4.09665 101.56 2.92832 101.157 1.99965 100.349C1.08595 99.5274 0.554209 98.5184 0.404423 97.3227H2.92083C3.13053 98.8024 3.99929 99.5423 5.52711 99.5423C6.21613 99.5423 6.80778 99.3928 7.30208 99.0939C7.79637 98.795 8.17084 98.3839 8.42548 97.8608C8.69509 97.3227 8.88232 96.7547 8.98717 96.1568C9.107 95.5589 9.16692 94.9013 9.16692 94.1838V93.9596L9.09951 93.9372C8.26071 95.2974 6.92761 95.9775 5.10022 95.9775C3.58738 95.9775 2.35913 95.4992 1.41548 94.5425C0.471827 93.5859 0 92.3453 0 90.8208C0 89.2812 0.501784 88.0032 1.50535 86.9868C2.50892 85.9555 3.857 85.4398 5.54958 85.4398C9.57883 85.4398 11.5935 88.1153 11.5935 93.4664C11.5935 96.0223 11.0617 98.0103 9.99823 99.4302C8.93475 100.85 7.43689 101.56 5.50464 101.56ZM5.45971 93.9372C6.50821 93.9372 7.33953 93.6383 7.95365 93.0404C8.58275 92.4275 8.8973 91.6279 8.8973 90.6414C8.8973 89.6848 8.60522 88.915 8.02105 88.3321C7.45187 87.7491 6.64302 87.4577 5.59452 87.4577C4.60593 87.4577 3.83453 87.7491 3.28032 88.3321C2.74109 88.915 2.47147 89.6997 2.47147 90.6862C2.47147 91.7026 2.74109 92.5023 3.28032 93.0852C3.81955 93.6532 4.54601 93.9372 5.45971 93.9372Z" fill="white"/>
<path fill-rule="evenodd" clip-rule="evenodd" d="M133.963 18.8878L139.821 9.32228L142.696 11.076L136.838 20.6414L133.963 18.8878ZM50.5106 20.6453L44.5517 11.1422L47.4087 9.35826L53.3676 18.8615L50.5106 20.6453ZM166.338 49.6035L175.769 43.5135L177.6 46.337L168.168 52.427L166.338 49.6035ZM19.2416 52.4817L9.74597 46.4915L11.5468 43.6488L21.0425 49.639L19.2416 52.4817ZM167.959 134.316L177.454 140.307L175.653 143.149L166.158 137.159L167.959 134.316ZM20.8628 137.195L11.4311 143.285L9.6002 140.461L19.0319 134.371L20.8628 137.195ZM136.69 166.153L142.649 175.656L139.792 177.44L133.833 167.937L136.69 166.153ZM53.2377 167.91L47.3798 177.476L44.504 175.722L50.362 166.157L53.2377 167.91Z" fill="white"/>
</svg>
